<svg width="212" height="212" viewBox="0 0 212 212" fill="none" xmlns="http://www.w3.org/2000/svg">
<path d="M35.3333 159C30.475 159 26.3174 157.272 22.8606 153.815C19.4039 150.358 17.6725 146.198 17.6666 141.333V44.1667C17.6666 39.3083 19.398 35.1508 22.8606 31.694C26.3233 28.2372 30.4809 26.5059 35.3333 26.5H176.667C181.525 26.5 185.685 28.2313 189.148 31.694C192.611 35.1567 194.339 39.3142 194.333 44.1667V141.333C194.333 146.192 192.605 150.352 189.148 153.815C185.691 157.277 181.531 159.006 176.667 159H35.3333ZM8.83331 185.5V167.833H203.167V185.5H8.83331Z" fill="#F5F5F5"/>
</svg>
