<svg width="212" height="212" viewBox="0 0 212 212" fill="none" xmlns="http://www.w3.org/2000/svg">
<path d="M26.5 61.8337V44.167H44.1667V35.3337C44.1667 30.6482 46.028 26.1546 49.3411 22.8414C52.6543 19.5283 57.1478 17.667 61.8333 17.667H114.833V79.5003L136.917 66.2503L159 79.5003V17.667H167.833C177.108 17.667 185.5 26.0587 185.5 35.3337V176.667C185.5 185.942 177.108 194.334 167.833 194.334H61.8333C52.5583 194.334 44.1667 185.942 44.1667 176.667V167.834H26.5V150.167H44.1667V114.834H26.5V97.167H44.1667V61.8337H26.5ZM61.8333 97.167H44.1667V114.834H61.8333V97.167ZM61.8333 61.8337V44.167H44.1667V61.8337H61.8333ZM61.8333 167.834V150.167H44.1667V167.834H61.8333Z" fill="#F5F5F5"/>
</svg>
